<?xml version="1.0" encoding="UTF-8" standalone="no"?>
<!-- Created with Inkscape (http://www.inkscape.org/) -->

<svg
   width="50"
   height="50"
   viewBox="0 0 13.229166 13.229167"
   version="1.1"
   id="svg5"
   inkscape:version="1.1.1 (3bf5ae0d25, 2021-09-20)"
   sodipodi:docname="sydneyswanslogosvg.svg"
   xmlns:inkscape="http://www.inkscape.org/namespaces/inkscape"
   xmlns:sodipodi="http://sodipodi.sourceforge.net/DTD/sodipodi-0.dtd"
   xmlns="http://www.w3.org/2000/svg"
   xmlns:svg="http://www.w3.org/2000/svg">
  <sodipodi:namedview
     id="namedview7"
     pagecolor="#ffffff"
     bordercolor="#666666"
     borderopacity="1.0"
     inkscape:pageshadow="2"
     inkscape:pageopacity="0.0"
     inkscape:pagecheckerboard="false"
     inkscape:document-units="px"
     showgrid="false"
     showborder="true"
     units="px"
     inkscape:zoom="8.9500195"
     inkscape:cx="31.675908"
     inkscape:cy="26.536255"
     inkscape:window-width="1920"
     inkscape:window-height="1057"
     inkscape:window-x="-8"
     inkscape:window-y="-8"
     inkscape:window-maximized="1"
     inkscape:current-layer="layer1"
     inkscape:snap-bbox="true"
     inkscape:bbox-nodes="true"
     inkscape:bbox-paths="true"
     inkscape:snap-bbox-edge-midpoints="true"
     inkscape:snap-bbox-midpoints="true"
     inkscape:object-paths="true"
     inkscape:snap-intersection-paths="true"
     inkscape:snap-smooth-nodes="true"
     inkscape:snap-midpoints="true"
     inkscape:snap-object-midpoints="true"
     inkscape:snap-center="true"
     inkscape:snap-text-baseline="true"
     fit-margin-top="0"
     fit-margin-left="0"
     fit-margin-right="0"
     fit-margin-bottom="0" />
  <defs
     id="defs2" />
  <g
     inkscape:label="Layer 1"
     inkscape:groupmode="layer"
     id="layer1"
     transform="translate(-154.26035,-114.45968)">
    <path
       id="rect888"
       style="fill:#ffffff;stroke-width:0.999999;stroke-linejoin:round;stop-color:#000000"
       d="m 633.03125,457.60352 c -0.13793,0.11959 -0.27348,0.24209 -0.4082,0.36718 -0.13472,0.1251 -0.26873,0.25249 -0.40039,0.38282 -0.13167,0.13032 -0.26185,0.26315 -0.39063,0.39843 -0.12877,0.13529 -0.25482,0.2741 -0.38086,0.41407 -0.12604,0.13996 -0.25153,0.2814 -0.375,0.42578 -0.12347,0.14438 -0.24613,0.29093 -0.36719,0.43945 -0.12105,0.14852 -0.24057,0.29878 -0.35937,0.45117 -0.1188,0.15239 -0.23682,0.30691 -0.35352,0.46289 -0.1167,0.15599 -0.23289,0.31335 -0.34765,0.47266 -0.11476,0.1593 -0.22686,0.32007 -0.33985,0.48242 -0.22596,0.32471 -0.45011,0.65691 -0.66992,0.99219 -0.2198,0.33527 -0.43547,0.67392 -0.65039,1.01758 -0.21491,0.34365 -0.42932,0.69116 -0.64062,1.04101 -0.0253,-0.26719 -0.0475,-0.5304 -0.0664,-0.78906 -0.0189,-0.25866 -0.0329,-0.51256 -0.0449,-0.76367 -0.0121,-0.25112 -0.0207,-0.49764 -0.0254,-0.74219 -0.005,-0.24455 -0.007,-0.48759 -0.004,-0.72656 0.003,-0.23897 0.0102,-0.47461 0.0215,-0.70899 0.0113,-0.23438 0.0269,-0.46649 0.0469,-0.69726 0.02,-0.23077 0.0451,-0.46131 0.0742,-0.68946 0.0291,-0.22814 0.0628,-0.45513 0.10156,-0.68164 0.0387,-0.22651 0.082,-0.45187 0.13086,-0.67773 0.0488,-0.22586 0.10277,-0.45154 0.16211,-0.67773 0.0593,-0.2262 0.125,-0.45218 0.19531,-0.67969 0.0703,-0.22751 0.14482,-0.45574 0.22657,-0.68555 0.0817,-0.22981 0.17003,-0.46221 0.26367,-0.69531 0.0936,-0.2331 0.19284,-0.46771 0.29883,-0.70508 0.10598,-0.23737 0.2191,-0.47612 0.33789,-0.71875 0.11878,-0.24263 0.24295,-0.48941 0.375,-0.73828 -0.26003,-0.0121 -0.51148,-0.02 -0.75586,-0.0254 -0.24438,-0.005 -0.48054,-0.008 -0.71094,-0.006 -0.2304,0.002 -0.4538,0.009 -0.67188,0.0195 -0.21807,0.0102 -0.43125,0.0238 -0.63867,0.043 -0.20742,0.0192 -0.409,0.0435 -0.60742,0.0723 -0.19842,0.0288 -0.39289,0.0624 -0.58398,0.10157 -0.1911,0.0392 -0.37903,0.0825 -0.56446,0.13281 -0.0927,0.0251 -0.18573,0.052 -0.27734,0.0801 -0.0916,0.0281 -0.18273,0.0588 -0.27344,0.0898 -0.0907,0.0311 -0.18146,0.0635 -0.27148,0.0977 -0.09,0.0342 -0.17804,0.0701 -0.26758,0.10742 -0.17908,0.0747 -0.35871,0.15419 -0.53711,0.24219 -0.1784,0.088 -0.35577,0.18311 -0.53516,0.28515 -0.17938,0.10205 -0.36093,0.2113 -0.54297,0.32813 -0.18203,0.11682 -0.36443,0.24266 -0.55078,0.375 -0.18634,0.13234 -0.37603,0.27133 -0.56836,0.41992 -0.19232,0.14859 -0.38793,0.30513 -0.58789,0.4707 -0.19996,0.16557 -0.40401,0.34015 -0.61328,0.52344 -0.39212,-0.34448 -0.77699,-0.68156 -1.15429,-1.01172 -0.37731,-0.33015 -0.74753,-0.65354 -1.11329,-0.96875 -0.36575,-0.31521 -0.72651,-0.62224 -1.08398,-0.92187 -0.35747,-0.29964 -0.71199,-0.59156 -1.06445,-0.875 -0.17623,-0.14172 -0.35176,-0.28042 -0.52735,-0.41797 -0.17559,-0.13756 -0.35003,-0.27294 -0.52539,-0.40625 -0.17536,-0.13331 -0.35181,-0.26555 -0.52734,-0.39453 -0.17554,-0.12899 -0.35122,-0.25628 -0.52734,-0.38086 -0.17613,-0.12459 -0.35219,-0.24513 -0.5293,-0.36524 -0.17712,-0.1201 -0.35469,-0.23796 -0.5332,-0.35351 -0.17852,-0.11555 -0.35874,-0.22893 -0.53907,-0.33985 -0.18033,-0.11091 -0.36042,-0.21996 -0.54297,-0.32617 -0.18255,-0.1062 -0.36755,-0.21109 -0.55273,-0.3125 -0.18518,-0.10141 -0.37038,-0.20033 -0.55859,-0.29687 -0.18822,-0.0965 -0.37865,-0.18966 -0.57032,-0.28125 -0.19166,-0.0916 -0.38456,-0.18101 -0.58008,-0.26758 -0.19551,-0.0866 -0.39396,-0.17049 -0.59374,-0.25195 -0.19979,-0.0815 -0.40102,-0.16005 -0.60547,-0.23633 -0.20446,-0.0763 -0.41156,-0.14968 -0.6211,-0.22071 -0.20953,-0.071 -0.42169,-0.13938 -0.63672,-0.20507 -0.21502,-0.0657 -0.43337,-0.12918 -0.65429,-0.18946 -0.22092,-0.0603 -0.44465,-0.11904 -0.67188,-0.17382 -0.22722,-0.0548 -0.45746,-0.10509 -0.6914,-0.1543 -0.23394,-0.0492 -0.47183,-0.0971 -0.7129,-0.14063 -0.24106,-0.0436 -0.48577,-0.0833 -0.73437,-0.12109 -0.2486,-0.0378 -0.50128,-0.0734 -0.75781,-0.10547 -0.25654,-0.032 -0.51637,-0.0618 -0.78125,-0.0879 -0.26489,-0.0261 -0.53495,-0.0482 -0.8086,-0.0684 0.091,0.17943 0.17919,0.35818 0.26368,0.53711 0.0845,0.17893 0.16581,0.35865 0.24414,0.53711 0.0783,0.17846 0.15402,0.35519 0.22656,0.5332 0.0725,0.17801 0.14186,0.35561 0.20898,0.53321 0.0671,0.17759 0.13127,0.35599 0.19336,0.5332 0.0621,0.17721 0.12226,0.3544 0.17969,0.53125 0.0574,0.17685 0.11287,0.35278 0.16602,0.5293 0.0531,0.17652 0.10311,0.35307 0.15234,0.52929 0.0492,0.17622 0.0969,0.35335 0.14258,0.5293 0.0457,0.17595 0.0903,0.35164 0.13281,0.52734 0.0851,0.35141 0.16361,0.70213 0.23828,1.05274 0.0747,0.35061 0.14562,0.70074 0.21289,1.05078 0.0673,0.35004 0.13049,0.69913 0.19336,1.04883 -0.33002,-0.10383 -0.65975,-0.20646 -0.99219,-0.3086 -0.33244,-0.10213 -0.66648,-0.20408 -1.0039,-0.30273 -0.33743,-0.0987 -0.67846,-0.19375 -1.02344,-0.28711 -0.34498,-0.0934 -0.69372,-0.18522 -1.04883,-0.27148 -0.35511,-0.0863 -0.71618,-0.16676 -1.08398,-0.24415 -0.18391,-0.0387 -0.36908,-0.0772 -0.55664,-0.11328 -0.18756,-0.0361 -0.37878,-0.0702 -0.57032,-0.10351 -0.19153,-0.0333 -0.38424,-0.0654 -0.58007,-0.0957 -0.19584,-0.0303 -0.3933,-0.0588 -0.59375,-0.0859 -0.20046,-0.0271 -0.40398,-0.0525 -0.60938,-0.0762 -0.2054,-0.0236 -0.41238,-0.0464 -0.62305,-0.0664 0.1063,0.43063 0.22296,0.86233 0.32813,1.29297 0.0526,0.21531 0.10158,0.42921 0.14453,0.64453 0.0215,0.10766 0.0426,0.21656 0.0606,0.32422 0.0179,0.10766 0.0333,0.2146 0.0469,0.32226 0.0136,0.10766 0.0248,0.21461 0.0332,0.32227 0.008,0.10766 0.0151,0.21656 0.0176,0.32422 0.003,0.10766 2.9e-4,0.2146 -0.004,0.32226 -0.004,0.10766 -0.0118,0.21461 -0.0234,0.32227 -0.0117,0.10766 -0.027,0.21656 -0.0469,0.32422 -0.0199,0.10766 -0.0433,0.21461 -0.0723,0.32226 -0.0289,0.10766 -0.0628,0.21656 -0.10156,0.32422 -0.0388,0.10766 -0.0835,0.21461 -0.13282,0.32227 -0.10981,-0.0701 -0.22262,-0.13799 -0.33789,-0.20313 -0.11526,-0.0651 -0.23306,-0.12711 -0.35351,-0.1875 -0.12045,-0.0604 -0.24377,-0.1199 -0.36914,-0.17578 -0.12537,-0.0559 -0.25279,-0.10855 -0.38281,-0.16016 -0.13003,-0.0516 -0.26208,-0.10085 -0.39649,-0.14843 -0.13441,-0.0476 -0.27162,-0.0929 -0.41016,-0.13672 -0.13853,-0.0438 -0.27752,-0.0867 -0.41992,-0.12695 -0.14239,-0.0403 -0.2876,-0.0783 -0.43359,-0.11524 -0.14599,-0.037 -0.29405,-0.0735 -0.44336,-0.10742 -0.14931,-0.0339 -0.2988,-0.0665 -0.45117,-0.0977 -0.30476,-0.0622 -0.61623,-0.11745 -0.93164,-0.16992 -0.31541,-0.0525 -0.63504,-0.10183 -0.95899,-0.14648 -0.32394,-0.0447 -0.65207,-0.0862 -0.98242,-0.125 0.13494,0.34028 0.26683,0.66602 0.38867,0.97851 0.0609,0.15625 0.11847,0.3083 0.17383,0.45899 0.0554,0.15069 0.10798,0.29925 0.15625,0.44531 0.0483,0.14606 0.0932,0.29124 0.13281,0.43359 0.0397,0.14235 0.074,0.28231 0.10352,0.42188 0.0295,0.13956 0.0544,0.27831 0.0723,0.41601 0.009,0.0689 0.0158,0.13652 0.0215,0.20508 0.006,0.0686 0.009,0.13669 0.0117,0.20508 0.002,0.0684 0.003,0.13675 0.002,0.20508 -10e-4,0.0683 -0.005,0.13669 -0.01,0.20508 -0.005,0.0684 -0.0125,0.13847 -0.0215,0.20703 -0.009,0.0686 -0.02,0.13623 -0.0332,0.20508 -0.0132,0.0688 -0.0274,0.13778 -0.0449,0.20703 -0.0175,0.0693 -0.0385,0.13921 -0.0606,0.20898 -0.022,0.0698 -0.0455,0.14054 -0.0723,0.21094 -0.0268,0.0704 -0.0562,0.13978 -0.0879,0.21094 -0.0317,0.0711 -0.0648,0.14282 -0.10156,0.21484 -0.0368,0.072 -0.077,0.14575 -0.11914,0.21875 -0.0421,0.073 -0.0872,0.14465 -0.13477,0.21875 -0.0476,0.0741 -0.0971,0.1493 -0.15039,0.22461 -0.0533,0.0753 -0.11075,0.15188 -0.16992,0.22852 -0.0592,0.0766 -0.12031,0.15433 -0.18555,0.23242 -0.0652,0.0781 -0.13358,0.15668 -0.20507,0.23632 -0.0715,0.0797 -0.14667,0.15892 -0.22461,0.24024 -0.14126,-0.21893 -0.28253,-0.43614 -0.42578,-0.6543 -0.14326,-0.21815 -0.28859,-0.43636 -0.4375,-0.65234 -0.14892,-0.21598 -0.30078,-0.43018 -0.45899,-0.64258 -0.0791,-0.1062 -0.16007,-0.21136 -0.24219,-0.31641 -0.0821,-0.10504 -0.16637,-0.21074 -0.25195,-0.31445 -0.0856,-0.10371 -0.17221,-0.20639 -0.26172,-0.30859 -0.0895,-0.1022 -0.18151,-0.20417 -0.27539,-0.30469 -0.0939,-0.10052 -0.19034,-0.20017 -0.28906,-0.29883 -0.0987,-0.0987 -0.20068,-0.19634 -0.30469,-0.29297 -0.10401,-0.0966 -0.21056,-0.19074 -0.32031,-0.28515 -0.10976,-0.0944 -0.22193,-0.18922 -0.33789,-0.28125 -0.11596,-0.092 -0.23481,-0.18202 -0.35742,-0.27149 -0.12262,-0.0895 -0.24918,-0.17694 -0.37891,-0.26367 v 23.60938 h 50 z"
       transform="scale(0.26458333)" />
    <path
       id="path1892"
       style="fill:#ff0000;stroke-width:0.999999;stroke-linejoin:round;stop-color:#000000"
       d="m 583.03125,432.60352 v 26.39062 c 0.12973,0.0867 0.25629,0.17421 0.37891,0.26367 0.12261,0.0895 0.24146,0.17946 0.35742,0.27149 0.11596,0.092 0.22813,0.18683 0.33789,0.28125 0.10975,0.0944 0.2163,0.18853 0.32031,0.28515 0.10401,0.0966 0.20597,0.19431 0.30469,0.29297 0.0987,0.0987 0.19518,0.19831 0.28906,0.29883 0.0939,0.10052 0.18589,0.20249 0.27539,0.30469 0.0895,0.1022 0.17614,0.20488 0.26172,0.30859 0.0856,0.10371 0.16984,0.20941 0.25195,0.31445 0.0821,0.10505 0.16308,0.21021 0.24219,0.31641 0.15821,0.2124 0.31007,0.4266 0.45899,0.64258 0.14891,0.21598 0.29424,0.43419 0.4375,0.65234 0.14325,0.21816 0.28452,0.43537 0.42578,0.6543 0.0779,-0.0813 0.15311,-0.16059 0.22461,-0.24024 0.0715,-0.0796 0.13984,-0.15824 0.20507,-0.23632 0.0652,-0.0781 0.12638,-0.15579 0.18555,-0.23242 0.0592,-0.0766 0.11663,-0.15321 0.16992,-0.22852 0.0533,-0.0753 0.10278,-0.15051 0.15039,-0.22461 0.0476,-0.0741 0.0927,-0.14575 0.13477,-0.21875 0.0421,-0.073 0.0823,-0.14673 0.11914,-0.21875 0.0368,-0.072 0.0699,-0.14369 0.10156,-0.21484 0.0317,-0.0712 0.0611,-0.14054 0.0879,-0.21094 0.0268,-0.0704 0.0502,-0.14117 0.0723,-0.21094 0.0221,-0.0698 0.043,-0.13973 0.0606,-0.20898 0.0175,-0.0692 0.0317,-0.13819 0.0449,-0.20703 0.0132,-0.0688 0.0242,-0.13653 0.0332,-0.20508 0.009,-0.0686 0.0164,-0.13865 0.0215,-0.20703 0.005,-0.0684 0.009,-0.13675 0.01,-0.20508 10e-4,-0.0683 3.7e-4,-0.13669 -0.002,-0.20508 -0.002,-0.0684 -0.006,-0.13651 -0.0117,-0.20508 -0.006,-0.0686 -0.0126,-0.13622 -0.0215,-0.20508 -0.0178,-0.1377 -0.0427,-0.27645 -0.0723,-0.41601 -0.0295,-0.13957 -0.0639,-0.27953 -0.10352,-0.42188 -0.0396,-0.14235 -0.0845,-0.28753 -0.13281,-0.43359 -0.0483,-0.14606 -0.10089,-0.29462 -0.15625,-0.44531 -0.0554,-0.15069 -0.1129,-0.30274 -0.17383,-0.45899 -0.12184,-0.31249 -0.25373,-0.63823 -0.38867,-0.97851 0.33035,0.0388 0.65848,0.0803 0.98242,0.125 0.32395,0.0447 0.64358,0.094 0.95899,0.14648 0.31541,0.0525 0.62688,0.10769 0.93164,0.16992 0.15237,0.0311 0.30186,0.0637 0.45117,0.0977 0.14931,0.0339 0.29737,0.0704 0.44336,0.10742 0.14599,0.037 0.2912,0.075 0.43359,0.11524 0.1424,0.0403 0.28139,0.0831 0.41992,0.12695 0.13854,0.0438 0.27575,0.0891 0.41016,0.13672 0.13441,0.0476 0.26646,0.0968 0.39649,0.14843 0.13002,0.0516 0.25744,0.10429 0.38281,0.16016 0.12537,0.0559 0.24869,0.1154 0.36914,0.17578 0.12045,0.0604 0.23825,0.12236 0.35351,0.1875 0.11527,0.0651 0.22808,0.13299 0.33789,0.20313 0.0493,-0.10766 0.0941,-0.21461 0.13282,-0.32227 0.0387,-0.10766 0.0726,-0.21656 0.10156,-0.32422 0.0289,-0.10765 0.0524,-0.2146 0.0723,-0.32226 0.0199,-0.10766 0.0352,-0.21656 0.0469,-0.32422 0.0117,-0.10766 0.0192,-0.21461 0.0234,-0.32227 0.004,-0.10766 0.006,-0.2146 0.004,-0.32226 -0.002,-0.10766 -0.009,-0.21656 -0.0176,-0.32422 -0.008,-0.10766 -0.0197,-0.21461 -0.0332,-0.32227 -0.0135,-0.10766 -0.029,-0.2146 -0.0469,-0.32226 -0.0179,-0.10766 -0.0391,-0.21656 -0.0606,-0.32422 -0.043,-0.21532 -0.0919,-0.42922 -0.14453,-0.64453 -0.10517,-0.43064 -0.22183,-0.86234 -0.32813,-1.29297 0.21067,0.02 0.41765,0.0428 0.62305,0.0664 0.2054,0.0236 0.40892,0.0491 0.60938,0.0762 0.20045,0.0271 0.39791,0.0556 0.59375,0.0859 0.19583,0.0303 0.38854,0.0624 0.58007,0.0957 0.19154,0.0333 0.38276,0.0674 0.57032,0.10351 0.18756,0.0361 0.37273,0.0746 0.55664,0.11328 0.3678,0.0774 0.72887,0.15788 1.08398,0.24415 0.35511,0.0863 0.70385,0.17812 1.04883,0.27148 0.34498,0.0934 0.68601,0.18846 1.02344,0.28711 0.33742,0.0986 0.67146,0.2006 1.0039,0.30273 0.33244,0.10214 0.66217,0.20477 0.99219,0.3086 -0.0629,-0.3497 -0.12609,-0.69879 -0.19336,-1.04883 -0.0673,-0.35004 -0.13822,-0.70017 -0.21289,-1.05078 -0.0747,-0.35061 -0.15322,-0.70133 -0.23828,-1.05274 -0.0425,-0.1757 -0.0871,-0.35139 -0.13281,-0.52734 -0.0457,-0.17595 -0.0934,-0.35308 -0.14258,-0.5293 -0.0492,-0.17622 -0.0992,-0.35277 -0.15234,-0.52929 -0.0531,-0.17652 -0.10859,-0.35245 -0.16602,-0.5293 -0.0574,-0.17685 -0.1176,-0.35404 -0.17969,-0.53125 -0.0621,-0.17721 -0.12623,-0.35561 -0.19336,-0.5332 -0.0671,-0.1776 -0.13645,-0.3552 -0.20898,-0.53321 -0.0725,-0.17801 -0.14824,-0.35474 -0.22656,-0.5332 -0.0783,-0.17846 -0.15966,-0.35818 -0.24414,-0.53711 -0.0845,-0.17893 -0.17266,-0.35768 -0.26368,-0.53711 0.27365,0.0202 0.54371,0.0422 0.8086,0.0684 0.26488,0.0261 0.52471,0.0559 0.78125,0.0879 0.25653,0.032 0.50921,0.0676 0.75781,0.10547 0.2486,0.0378 0.49331,0.0775 0.73437,0.12109 0.24107,0.0436 0.47896,0.0914 0.7129,0.14063 0.23394,0.0492 0.46418,0.0995 0.6914,0.1543 0.22723,0.0548 0.45096,0.11355 0.67188,0.17382 0.22092,0.0603 0.43927,0.12377 0.65429,0.18946 0.21503,0.0657 0.42719,0.13405 0.63672,0.20507 0.20954,0.071 0.41664,0.14442 0.6211,0.22071 0.20445,0.0763 0.40568,0.15486 0.60547,0.23633 0.19978,0.0815 0.39823,0.16538 0.59374,0.25195 0.19552,0.0866 0.38842,0.17598 0.58008,0.26758 0.19167,0.0916 0.3821,0.1847 0.57032,0.28125 0.18821,0.0965 0.37341,0.19546 0.55859,0.29687 0.18518,0.10141 0.37018,0.2063 0.55273,0.3125 0.18255,0.10621 0.36264,0.21526 0.54297,0.32617 0.18033,0.11092 0.36055,0.2243 0.53907,0.33985 0.17851,0.11555 0.35608,0.23341 0.5332,0.35351 0.17711,0.12011 0.35317,0.24065 0.5293,0.36524 0.17612,0.12458 0.3518,0.25187 0.52734,0.38086 0.17553,0.12898 0.35198,0.26122 0.52734,0.39453 0.17536,0.13331 0.3498,0.26869 0.52539,0.40625 0.17559,0.13755 0.35112,0.27625 0.52735,0.41797 0.35246,0.28344 0.70698,0.57536 1.06445,0.875 0.35747,0.29963 0.71823,0.60666 1.08398,0.92187 0.36576,0.31521 0.73598,0.6386 1.11329,0.96875 0.3773,0.33016 0.76217,0.66724 1.15429,1.01172 0.20927,-0.18329 0.41332,-0.35787 0.61328,-0.52344 0.19996,-0.16557 0.39557,-0.32211 0.58789,-0.4707 0.19233,-0.14859 0.38202,-0.28758 0.56836,-0.41992 0.18635,-0.13234 0.36875,-0.25818 0.55078,-0.375 0.18204,-0.11683 0.36359,-0.22608 0.54297,-0.32813 0.17939,-0.10204 0.35676,-0.19715 0.53516,-0.28515 0.1784,-0.088 0.35803,-0.1675 0.53711,-0.24219 0.0895,-0.0374 0.17756,-0.0733 0.26758,-0.10742 0.09,-0.0342 0.18077,-0.0666 0.27148,-0.0977 0.0907,-0.0311 0.18183,-0.0618 0.27344,-0.0898 0.0916,-0.0281 0.18463,-0.0549 0.27734,-0.0801 0.18543,-0.0503 0.37336,-0.0936 0.56446,-0.13281 0.19109,-0.0392 0.38556,-0.0728 0.58398,-0.10157 0.19842,-0.0288 0.4,-0.0531 0.60742,-0.0723 0.20742,-0.0192 0.4206,-0.0327 0.63867,-0.043 0.21808,-0.0102 0.44148,-0.0174 0.67188,-0.0195 0.2304,-0.002 0.46656,5.1e-4 0.71094,0.006 0.24438,0.005 0.49583,0.0133 0.75586,0.0254 -0.13205,0.24887 -0.25622,0.49565 -0.375,0.73828 -0.11879,0.24263 -0.23191,0.48138 -0.33789,0.71875 -0.10599,0.23737 -0.2052,0.47198 -0.29883,0.70508 -0.0936,0.2331 -0.18193,0.4655 -0.26367,0.69531 -0.0818,0.22981 -0.15625,0.45804 -0.22657,0.68555 -0.0703,0.22751 -0.13597,0.45349 -0.19531,0.67969 -0.0593,0.22619 -0.11329,0.45187 -0.16211,0.67773 -0.0488,0.22586 -0.0921,0.45122 -0.13086,0.67773 -0.0388,0.22651 -0.0724,0.4535 -0.10156,0.68164 -0.0291,0.22815 -0.0542,0.45869 -0.0742,0.68946 -0.02,0.23077 -0.0356,0.46288 -0.0469,0.69726 -0.0113,0.23438 -0.0184,0.47002 -0.0215,0.70899 -0.003,0.23897 -8.2e-4,0.48201 0.004,0.72656 0.005,0.24455 0.0133,0.49107 0.0254,0.74219 0.0121,0.25111 0.026,0.50501 0.0449,0.76367 0.0189,0.25866 0.0411,0.52187 0.0664,0.78906 0.2113,-0.34985 0.42571,-0.69736 0.64062,-1.04101 0.21492,-0.34366 0.43059,-0.68231 0.65039,-1.01758 0.21981,-0.33528 0.44396,-0.66748 0.66992,-0.99219 0.11299,-0.16235 0.22509,-0.32312 0.33985,-0.48242 0.11476,-0.15931 0.23095,-0.31667 0.34765,-0.47266 0.1167,-0.15598 0.23472,-0.3105 0.35352,-0.46289 0.1188,-0.15239 0.23832,-0.30265 0.35937,-0.45117 0.12106,-0.14852 0.24372,-0.29507 0.36719,-0.43945 0.12347,-0.14438 0.24896,-0.28582 0.375,-0.42578 0.12604,-0.13997 0.25209,-0.27878 0.38086,-0.41407 0.12878,-0.13528 0.25896,-0.26811 0.39063,-0.39843 0.13166,-0.13033 0.26567,-0.25772 0.40039,-0.38282 0.13472,-0.12509 0.27027,-0.24759 0.4082,-0.36718 v -25 z"
       transform="scale(0.26458333)" />
  </g>
</svg>
